<?xml version="1.0" standalone="no"?>
<!DOCTYPE svg PUBLIC "-//W3C//DTD SVG 20010904//EN"
 "http://www.w3.org/TR/2001/REC-SVG-20010904/DTD/svg10.dtd">
<svg version="1.0" xmlns="http://www.w3.org/2000/svg"
 width="260.000000pt" height="260.000000pt" viewBox="0 0 260.000000 260.000000"
 preserveAspectRatio="xMidYMid meet">
<metadata>
Created by potrace 1.11, written by Peter Selinger 2001-2013
</metadata>
<g transform="translate(0.000000,260.000000) scale(0.100000,-0.100000)"
fill="#000000" stroke="none">
<path d="M1085 2554 c-444 -80 -809 -370 -977 -775 -41 -97 -74 -221 -87 -325
-9 -69 -7 -282 4 -339 20 -107 31 -149 57 -225 149 -428 516 -741 978 -837 91
-19 332 -25 425 -10 230 36 454 132 636 274 29 22 154 146 190 189 139 163
255 436 276 648 38 399 -85 755 -357 1026 -114 115 -180 165 -310 237 -49 27
-209 91 -267 108 -155 44 -414 57 -568 29z"/>
</g>
</svg>
